<?xml version="1.0" standalone="no"?>
<!DOCTYPE svg PUBLIC "-//W3C//DTD SVG 20010904//EN"
 "http://www.w3.org/TR/2001/REC-SVG-20010904/DTD/svg10.dtd">
<svg version="1.0" xmlns="http://www.w3.org/2000/svg"
 width="144.000000pt" height="144.000000pt" viewBox="0 0 144.000000 144.000000"
 preserveAspectRatio="xMidYMid meet">
<metadata>
Created by potrace 1.14, written by Peter Selinger 2001-2017
</metadata>
<g transform="translate(0.000000,144.000000) scale(0.100000,-0.100000)"
fill="#000000" stroke="none">
<path d="M565 1284 c-20 -21 -23 -35 -21 -81 1 -48 6 -59 34 -84 l32 -29 -20
-20 c-25 -25 -26 -80 -1 -111 24 -30 84 -30 114 -1 l20 20 21 -24 c32 -36 81
-40 111 -10 34 34 37 90 8 113 -9 7 -15 14 -12 15 2 2 18 10 34 20 38 20 58
60 59 114 1 104 -87 96 -170 -15 l-38 -51 -23 48 c-26 55 -73 107 -104 115
-15 4 -29 -2 -44 -19z"/>
<path d="M210 1073 c-26 -10 -70 -67 -76 -99 -3 -18 -1 -41 5 -53 11 -19 9
-21 -14 -21 -45 0 -81 -49 -76 -100 3 -25 50 -60 82 -60 16 0 28 -3 28 -7 -8
-48 34 -103 76 -103 39 0 89 53 81 86 -4 15 -3 23 2 20 6 -3 25 -8 43 -11 42
-6 91 21 118 66 42 69 -22 107 -138 83 -36 -8 -66 -12 -67 -11 -2 1 1 20 6 42
28 118 -4 192 -70 168z"/>
<path d="M1156 988 c-20 -28 -20 -90 -2 -153 l15 -47 -32 8 c-63 15 -153 10
-175 -9 -33 -30 -15 -76 44 -117 28 -19 42 -22 80 -16 39 5 45 4 43 -12 -8
-47 68 -95 112 -71 26 13 51 66 44 89 -5 15 -2 18 13 15 45 -8 100 41 94 85
-8 46 -54 86 -86 74 -11 -4 -13 3 -9 35 7 52 -9 90 -50 119 -42 28 -72 28 -91
0z"/>
<path d="M428 550 c-9 -6 -24 -32 -33 -59 -16 -51 -10 -87 20 -121 12 -14 10
-17 -15 -28 -34 -15 -50 -68 -32 -107 13 -28 66 -46 100 -33 33 12 39 10 45
-11 8 -31 65 -61 94 -50 50 19 74 69 53 108 -9 18 -8 21 12 21 41 0 85 35 103
84 43 111 -49 132 -173 39 -37 -28 -41 -27 -47 8 -23 126 -70 182 -127 149z"/>
</g>
</svg>
